<?xml version="1.0" encoding="UTF-8"?>
<svg width="50px" height="50px" viewBox="0 0 50 50" version="1.1" xmlns="http://www.w3.org/2000/svg" xmlns:xlink="http://www.w3.org/1999/xlink">
    <title>minus</title>
    <g id="Page-1" stroke="none" stroke-width="1" fill="none" fill-rule="evenodd">
        <g id="minus">
            <rect id="Rectangle-Copy" x="0" y="0" width="50" height="50"></rect>
            <path d="M41.1365327,26.8740699 C41.5240575,26.8740699 41.8922061,26.7733135 42.2409784,26.5718006 C42.5897507,26.3702877 42.8648934,26.0990203 43.0664062,25.7579985 C43.2679191,25.4169767 43.3686756,25.0372024 43.3686756,24.6186756 C43.3686756,24.2156498 43.2679191,23.843626 43.0664062,23.5026042 C42.8648934,23.1615823 42.5897507,22.8864397 42.2409784,22.6771763 C41.8922061,22.4679129 41.5240575,22.3632812 41.1365327,22.3632812 L9.04947917,22.3632812 C8.64645337,22.3632812 8.27830481,22.4679129 7.94503348,22.6771763 C7.61176215,22.8864397 7.33661954,23.1615823 7.11960565,23.5026042 C6.90259177,23.843626 6.79408482,24.2156498 6.79408482,24.6186756 C6.79408482,25.0372024 6.90259177,25.4169767 7.11960565,25.7579985 C7.33661954,26.0990203 7.61176215,26.3702877 7.94503348,26.5718006 C8.27830481,26.7733135 8.64645337,26.8740699 9.04947917,26.8740699 L41.1365327,26.8740699 Z" id="􀅽" fill="#8D8D92" fill-rule="nonzero"></path>
        </g>
    </g>
</svg>