<svg width="76" height="86" viewBox="0 0 76 86" fill="none" xmlns="http://www.w3.org/2000/svg">
<path d="M53.6543 20.8789V64.8789C53.6543 67.9165 51.1919 70.3789 48.1543 70.3789H27.1543C24.1167 70.3789 21.6543 67.9165 21.6543 64.8789V20.8789C21.6543 17.8413 24.1167 15.3789 27.1543 15.3789H48.1543C51.1919 15.3789 53.6543 17.8413 53.6543 20.8789Z" stroke="#A0A0A0" stroke-width="5"/>
<path opacity="0.6" d="M54.7199 7.70507L58.2707 8.33118C62.1274 9.01122 64.7026 12.689 64.0226 16.5457L61.9893 28.0768L61.1732 32.7054M20.5936 78.0475L17.0427 77.4214C13.186 76.7414 10.6108 73.0636 11.2909 69.2069L13.3241 57.6758L14.1403 53.0472" stroke="#A0A0A0" stroke-width="3"/>
<path opacity="0.6" d="M20.5926 7.70507L17.0418 8.33118C13.1851 9.01122 10.6099 12.689 11.2899 16.5457L13.3232 28.0768L14.1393 32.7054M54.7189 78.0475L58.2698 77.4214C62.1265 76.7414 64.7017 73.0636 64.0216 69.2069L61.9884 57.6758L61.1722 53.0472" stroke="#A0A0A0" stroke-width="3"/>
<rect x="26.6543" y="24.8789" width="6" height="6" rx="1" fill="#A0A0A0"/>
<rect x="34.6543" y="24.8789" width="6" height="6" rx="1" fill="#A0A0A0"/>
<rect x="42.6543" y="24.8789" width="6" height="6" rx="1" fill="#A0A0A0"/>
<rect x="26.6543" y="32.8789" width="6" height="6" rx="1" fill="#A0A0A0"/>
<rect x="34.6543" y="32.8789" width="6" height="6" rx="1" fill="#A0A0A0"/>
<rect x="42.6543" y="32.8789" width="6" height="6" rx="1" fill="#A0A0A0"/>
<rect x="26.6543" y="40.8789" width="6" height="6" rx="1" fill="#A0A0A0"/>
<rect x="34.6543" y="40.8789" width="6" height="6" rx="1" fill="#A0A0A0"/>
<path d="M30.1543 15.8789H46.1543V17.8789C46.1543 18.9835 45.2589 19.8789 44.1543 19.8789H32.1543C31.0497 19.8789 30.1543 18.9835 30.1543 17.8789V15.8789Z" fill="#A0A0A0"/>
</svg>
