<svg width="100" height="113" viewBox="0 0 100 113" fill="none" xmlns="http://www.w3.org/2000/svg">
<path fill-rule="evenodd" clip-rule="evenodd" d="M67.1953 12.5527H60.1953V12.5527C60.1953 13.9334 59.076 15.0527 57.6953 15.0527H50.6953H43.6953C42.3146 15.0527 41.1953 13.9334 41.1953 12.5527V12.5527H33.1953C30.4339 12.5527 28.1953 14.7913 28.1953 17.5527V95.5527C28.1953 98.3142 30.4339 100.553 33.1953 100.553H67.1953C69.9567 100.553 72.1953 98.3142 72.1953 95.5527V17.5527C72.1953 14.7913 69.9567 12.5527 67.1953 12.5527ZM33.1953 9.55273C28.777 9.55273 25.1953 13.1345 25.1953 17.5527V95.5527C25.1953 99.971 28.777 103.553 33.1953 103.553H67.1953C71.6136 103.553 75.1953 99.971 75.1953 95.5527V17.5527C75.1953 13.1345 71.6136 9.55273 67.1953 9.55273H33.1953Z" fill="#919195"/>
<path d="M78.8672 13.0532L82.0423 13.9039V13.9039C85.5495 14.8437 87.6308 18.4486 86.691 21.9557L81.9948 39.4824L80.3953 45.4516L79.5956 48.4362M21.5249 100.053L18.3498 99.2022V99.2022C14.8426 98.2625 12.7613 94.6576 13.7011 91.1505L18.3973 73.6238L19.9968 67.6546L20.7965 64.67" stroke="#919195" stroke-width="3"/>
<path d="M21.5254 13.0532L18.3502 13.9039V13.9039C14.8431 14.8437 12.7618 18.4486 13.7015 21.9557L18.3978 39.4824L19.9972 45.4516L20.797 48.4362M78.8677 100.053L82.0428 99.2022V99.2022C85.55 98.2625 87.6313 94.6576 86.6915 91.1505L81.9953 73.6238L80.3958 67.6546L79.5961 64.67" stroke="#919195" stroke-width="3"/>
</svg>
