<?xml version="1.0" encoding="UTF-8"?>
<svg width="50px" height="50px" viewBox="0 0 50 50" version="1.1" xmlns="http://www.w3.org/2000/svg" xmlns:xlink="http://www.w3.org/1999/xlink">
    <title>plus</title>
    <g id="Page-1" stroke="none" stroke-width="1" fill="none" fill-rule="evenodd">
        <g id="plus">
            <rect id="Rectangle" x="0" y="0" width="50" height="50"></rect>
            <path d="M25.1162574,42.8943452 C25.7362971,42.8943452 26.2633309,42.6734561 26.6973586,42.2316778 C27.1313864,41.7898996 27.3484003,41.2589906 27.3484003,40.6389509 L27.347619,26.875 L41.1597842,26.8740699 C41.7643229,26.8740699 42.2874814,26.6493056 42.7292597,26.1997768 C43.1710379,25.750248 43.3919271,25.2154638 43.3919271,24.5954241 C43.3919271,23.9753844 43.1710379,23.4444754 42.7292597,23.0026972 C42.2874814,22.5609189 41.7643229,22.3400298 41.1597842,22.3400298 L27.347619,22.3404762 L27.3484003,8.55189732 C27.3484003,7.94735863 27.1313864,7.4203249 26.6973586,6.97079613 C26.2633309,6.52126736 25.7362971,6.29650298 25.1162574,6.29650298 C24.4807168,6.29650298 23.9420573,6.52126736 23.500279,6.97079613 C23.0585007,7.4203249 22.8376116,7.94735863 22.8376116,8.55189732 L22.8369048,22.3404762 L9.04947917,22.3400298 C8.44494048,22.3400298 7.91790675,22.5609189 7.46837798,23.0026972 C7.01884921,23.4444754 6.79408482,23.9753844 6.79408482,24.5954241 C6.79408482,25.2154638 7.01884921,25.750248 7.46837798,26.1997768 C7.91790675,26.6493056 8.44494048,26.8740699 9.04947917,26.8740699 L22.8369048,26.875 L22.8376116,40.6389509 C22.8376116,41.2589906 23.0585007,41.7898996 23.500279,42.2316778 C23.9420573,42.6734561 24.4807168,42.8943452 25.1162574,42.8943452 Z" id="􀅼" fill="#8D8D92" fill-rule="nonzero"></path>
        </g>
    </g>
</svg>